<?xml version="1.0" standalone="no"?>
<!DOCTYPE svg PUBLIC "-//W3C//DTD SVG 1.1//EN" "http://www.w3.org/Graphics/SVG/1.1/DTD/svg11.dtd">
<svg xmlns="http://www.w3.org/2000/svg">
<metadata>Copyright (C) 2018 by original authors @ fontello.com</metadata>
<defs>
<font id="ic" horiz-adv-x="1000" >
<font-face font-family="ic" font-weight="400" font-stretch="normal" units-per-em="1000" ascent="850" descent="-150" />
<missing-glyph horiz-adv-x="1000" />
<glyph glyph-name="account_box" unicode="&#xe800;" d="M873 830h-746c-60 0-107-48-107-107v-746c0-59 47-107 107-107h746c59 0 107 48 107 107v746c0 59-48 107-107 107z m-373-160c89 0 160-71 160-160 0-89-71-160-160-160-89 0-160 72-160 160 0 89 71 160 160 160z m320-640h-640v53c0 107 213 166 320 166 107 0 320-59 320-166v-53z" horiz-adv-x="1000" />

<glyph glyph-name="account_circle" unicode="&#xe801;" d="M500 843c-272 0-493-221-493-493 0-272 221-493 493-493 272 0 493 221 493 493 0 272-221 493-493 493z m0-148c82 0 148-66 148-148s-66-148-148-148c-82 0-148 66-148 148s66 148 148 148z m0-700c-123 0-232 63-296 159 2 98 197 152 296 152 98 0 295-54 296-152-64-96-173-159-296-159z" horiz-adv-x="1000" />

<glyph glyph-name="apps" unicode="&#xe802;" d="M376 102h248v-249h-248v249z m-373 496h249v249h-249v-249z m0-745h249v249h-249v-249z m0 373h249v248h-249v-248z m373 0h248v248h-248v-248z m372 621v-249h249v249h-249z m0-621h249v248h-249v-248z m-372 372h248v249h-248v-249z m372-745h249v249h-249v-249z" horiz-adv-x="1000" />

<glyph glyph-name="block" unicode="&#xe803;" d="M500 842c-271 0-492-220-492-492 0-271 221-492 492-492 272 0 492 221 492 492 0 272-220 492-492 492l0 0z m-393-492c0 217 176 393 393 393 91 0 175-30 241-83l-551-551c-52 66-83 150-83 241l0 0z m393-394c-91 0-175 31-241 84l551 551c53-66 84-150 84-241 0-217-177-394-394-394l0 0z" horiz-adv-x="1000" />

<glyph glyph-name="calendar" unicode="&#xe804;" d="M831 464h-192-470v-473h662v473z m-505-440h-122v114h122v-114z m0 147h-122v114h122v-114z m0 146h-122v115h122v-115z m157-293h-122v114h122v-114z m0 147h-122v114h122v-114z m0 146h-122v115h122v-115z m156-293h-122v114h122v-114z m0 147h-122v114h122v-114z m0 146h-122v115h122v-115z m157-293h-122v114h122v-114z m0 147h-122v114h122v-114z m0 146h-122v115h122v-115z m174 457h-122v49c0 9-8 17-17 17h-122c-10 0-18-8-18-17v-49h-382v49c0 9-8 17-18 17h-122c-9 0-17-8-17-17v-49h-122c-9 0-17-7-17-16v-881c0-9 8-17 17-17h940c10 0 17 8 17 17v881c0 9-7 16-17 16z m-244 33h87v-98h-87v98z m-539 0h87v-98h-87v98z m766-914h-905v669h905v-669z m0 702h-905v147h104v-49c0-9 8-17 17-17h122c10 0 18 8 18 17v49h382v-49c0-9 8-17 18-17h122c9 0 17 8 17 17v49h104v-147z" horiz-adv-x="1000" />

<glyph glyph-name="chat" unicode="&#xe805;" d="M657 598l-567-1c-45 0-82-37-82-82v-351c0-46 37-82 82-82h117v-183l166 183 284 1c45 0 82 36 82 82v351c0 45-37 82-82 82z m-500-150h216c10 0 17-7 17-16 0-10-7-17-17-17h-216c-9 0-16 7-16 17 0 9 7 16 16 16z m432-232h-432c-9 0-16 7-16 16 0 9 7 17 16 17h432c9 0 17-8 17-17 0-9-8-16-17-16z m0 99h-432c-9 0-16 8-16 17 0 9 7 17 16 17h432c9 0 17-8 17-17 0-9-8-17-17-17z m403 403v-351c0-45-36-82-82-82h-34v-183l-116 128v307c0 45-37 81-82 81l-417 0v101c0 46 37 82 82 82l567-1c46 0 82-37 82-82z" horiz-adv-x="1000" />

<glyph glyph-name="child_care_white" unicode="&#xe806;" d="M556 417c0 31 25 56 56 56 31 0 56-25 56-56s-25-56-56-56c-31 0-56 25-56 56z m-168-56c31 0 56 25 56 56s-25 56-56 56-56-25-56-56 25-56 56-56z m605-11c0-10-1-20-3-30-11-68-61-122-125-142-24-49-57-93-98-129-71-64-164-102-267-102s-196 38-267 102c-40 36-74 80-97 129-65 20-115 75-126 142-2 10-3 20-3 30 0 10 1 20 3 30 11 68 61 122 126 142 23 49 57 94 98 130 71 63 164 101 266 101 102 0 195-38 266-101 41-36 74-80 98-130 65-20 115-75 126-142 2-10 3-20 3-30z m-90 0c0 49-40 90-89 90-5 0-9-1-13-2-9 30-22 58-39 84-56 85-152 142-262 142-110 0-206-57-262-142-17-26-30-54-38-84-5 1-9 2-13 2-50 0-90-41-90-90 0-49 40-90 90-90 4 0 8 1 13 2 8-30 21-58 38-83 56-86 152-142 262-142 110 0 206 56 262 142 17 25 30 53 39 83 4-1 8-2 13-2 49 0 89 41 89 90z m-403-224c90 0 168 55 202 134h-404c35-79 112-134 202-134z" horiz-adv-x="1000" />

<glyph glyph-name="circle_qustion" unicode="&#xe807;" d="M500 847c-273 0-494-222-494-497 0-275 221-497 494-497 273 0 494 222 494 497 0 275-221 497-494 497z m44-750h-102v98h102v-98z m97 334c-6-17-18-37-36-57l-30-34c-13-14-22-27-28-39-5-12-8-27-8-46v-11h-92v29c0 25 4 46 10 63s19 34 36 53l28 32c11 11 18 24 22 37 4 13 6 27 6 42 0 18-4 34-12 45s-21 18-38 18c-19 0-32-8-40-23-9-15-13-35-13-59v-18h-97v17c0 22 3 42 9 61 6 19 15 35 27 48 12 14 28 24 46 32 19 7 40 11 64 11 53 0 92-13 118-39 26-26 38-60 38-104 1-21-3-40-10-58z" horiz-adv-x="1000" />

<glyph glyph-name="clear" unicode="&#xe808;" d="M599 350l390-391-98-98-391 391-390-391-99 98 391 391-391 391 99 98 390-390 391 390 98-98-390-391z" horiz-adv-x="1000" />

<glyph glyph-name="create" unicode="&#xe809;" d="M8 63v-205h205l604 605-204 204-605-604 0 0z m968 558c21 21 21 56 0 77l-128 128c-21 21-56 21-77 0l-100-100 205-205 100 100 0 0z" horiz-adv-x="1000" />

<glyph glyph-name="date_range_white" unicode="&#xe80a;" d="M846 745h-50v99h-99v-99h-394v99h-99v-99h-49c-55 0-99-45-99-99l0-691c0-54 44-99 99-99h691c54 0 98 45 98 99v691c0 54-44 99-98 99z m0-790h-691v543h691v-543z m-99 346h-99v98h99v-98z m-198 0h-98v98h98v-98z m-197 0h-99v98h99v-98z" horiz-adv-x="1000" />

<glyph glyph-name="direction_car" unicode="&#xe80b;" d="M880 734c-11 32-42 55-78 55h-604c-36 0-66-23-78-55l-114-329v-440c0-30 24-54 55-54h55c30 0 55 24 55 54v55h659v-55c0-30 24-54 55-54h54c31 0 55 24 55 54v440l-114 329z m-682-549c-46 0-82 37-82 83 0 45 36 82 82 82s82-37 82-82c0-46-36-83-82-83z m604 0c-45 0-82 37-82 83 0 45 37 82 82 82s83-37 83-82c0-46-37-83-83-83z m-686 275l82 247h604l83-247h-769z" horiz-adv-x="1000" />

<glyph glyph-name="directions_bus" unicode="&#xe80c;" d="M500 841c-228 0-413-26-413-207v-516c0-46 20-86 52-115v-92c0-28 23-52 51-52h52c28 0 52 24 52 52v52h413v-52c0-28 23-52 51-52h52c28 0 51 24 51 52v92c32 28 52 69 52 115v516c0 181-185 207-413 207z m-232-775c-43 0-78 35-78 78 0 42 35 77 78 77s77-35 77-77c0-43-34-78-77-78z m464 0c-42 0-77 35-77 78 0 42 35 77 77 77 43 0 78-35 78-77 0-43-35-78-78-78z m78 310h-620v258h620v-258z" horiz-adv-x="1000" />

<glyph glyph-name="down_up" unicode="&#xe80d;" d="M500 226l279-285-86-88-193 197-193-197-86 88 279 285z m279 533l-86 88-193-197-193 197-86-88 279-285 279 285z" horiz-adv-x="1000" />

<glyph glyph-name="edit_block" unicode="&#xe80e;" d="M775 338v-441c0-24-22-43-47-43h-637c-25 0-45 19-45 43v831c0 24 20 42 45 42h466c25 0 45-20 45-44 0-24-20-43-45-43h-421v-742h549v397c0 24 20 44 45 44 25 0 45-20 45-44z m170 373l-470-463c-4-3-8-6-12-7l-132-51c-4-2-9-3-13-3-8 0-17 4-23 10-10 9-13 23-8 35l52 130c2 4 4 8 8 11l469 464c6 6 15 9 24 9h0c9 0 18-3 24-9l81-80c13-13 13-33 0-46z m-72 23l-33 33-441-435-21-54 54 21 441 435z" horiz-adv-x="1000" />

<glyph glyph-name="event_note" unicode="&#xe80f;" d="M599 103h-346v99h346v-99z m148 297h-494v-99h494v99z m198 247v-693c0-54-45-98-99-98h-692c-55 0-99 44-99 98l1 693c0 54 43 99 98 99h49v98h99v-98h396v98h99v-98h49c54 0 99-45 99-99z m-99-149h-692v-544h692v544z" horiz-adv-x="1000" />

<glyph glyph-name="expand_less" unicode="&#xe810;" d="M991 162l-115-115-376 375-376-375-115 115 491 491 491-491z" horiz-adv-x="1000" />

<glyph glyph-name="expand_more" unicode="&#xe811;" d="M993 539l-493-493-493 493 116 115 377-376 377 376 116-115z" horiz-adv-x="1000" />

<glyph glyph-name="explore" unicode="&#xe812;" d="M446 350c0 30 24 54 54 54 30 0 54-24 54-54 0-30-24-54-54-54-30 0-54 24-54 54z m548 0c0-272-222-494-494-494-272 0-493 222-493 494 0 272 221 494 493 494 272 0 494-222 494-494z m-198 296l-404-188-188-404 404 188 188 404z" horiz-adv-x="1000" />

<glyph glyph-name="facebook" unicode="&#xe813;" d="M707 525l-16-175h-125v-497h-185v497h-88v175h88v114c0 81 35 208 187 208l137-1v-170h-100c-16 0-39-9-39-48v-103h141z" horiz-adv-x="1000" />

<glyph glyph-name="faq" unicode="&#xe814;" d="M393 37h188v-180h-188v180z m315 735c-48 47-120 71-217 71-45 0-84-7-118-21-34-14-63-33-85-58-22-24-39-54-50-89-12-34-17-72-17-113v-32h180v35c0 44 7 80 23 108 15 28 39 42 74 42 31 0 54-11 70-32 15-22 23-50 23-84 0-28-4-53-12-77-7-25-21-47-40-68l-52-59c-31-35-53-68-66-99-12-31-19-70-19-116v-53h170v21c0 34 5 63 15 85 11 21 28 45 52 72l54 61c33 39 56 74 68 107 12 33 19 68 19 107 0 80-24 144-72 192z" horiz-adv-x="1000" />

<glyph glyph-name="favorite_border" unicode="&#xe815;" d="M722 803c-86 0-168-40-222-103-54 63-136 103-222 103-153 0-272-119-272-271 0-187 168-339 422-571l72-64 72 65c254 231 422 383 422 570 0 152-119 271-272 271z m-217-768l-5-5-5 5c-235 213-390 354-390 497 0 98 74 173 173 173 76 0 150-49 176-117h92c26 68 100 117 176 117 99 0 173-75 173-173 0-143-155-284-390-497z" horiz-adv-x="1000" />

<glyph glyph-name="fingerprint" unicode="&#xe816;" d="M194 733c-7 11-2 27 10 33 91 50 191 75 297 75 104 0 196-23 296-74 12-7 17-22 10-33-4-9-13-14-21-14-4 0-8 1-12 3-94 48-176 69-273 69-97 0-190-23-274-69-12-7-26-2-33 10z m599-718c-20-4-39-5-51-5-49 0-90 11-125 35-60 40-95 105-95 174 0 14-11 25-25 25-13 0-24-11-24-25 0-85 44-166 117-215 42-29 94-44 152-44 7 0 31 1 59 6 14 2 23 15 21 28-3 14-16 23-29 21z m-476 15c-30 53-46 119-46 189 0 119 103 216 229 216 127 0 229-97 229-216 0-13 11-24 25-24 13 0 24 11 24 24 0 146-124 265-278 265s-278-119-278-265c0-79 18-152 52-213 33-59 56-87 99-130 4-4 10-7 17-7 6 0 13 3 18 7 9 10 9 26 0 35-38 39-59 63-91 119z m181 574c-158 0-303-88-369-225-22-47-33-101-33-160 0-66 12-130 36-194 4-12 19-19 31-14 13 4 20 18 15 31-30 79-33 139-33 177 0 52 10 98 29 138 57 120 185 198 324 198 197 0 356-150 356-336 0-52-45-95-102-95s-102 43-102 95c0 80-68 145-151 145-84 0-151-65-151-145 0-97 37-188 106-256 54-53 105-82 183-103 2-1 4-1 6-1 11 0 21 7 23 19 4 12-4 26-17 29-69 20-114 45-160 91-60 59-92 138-92 222 0 52 45 95 102 95 56 0 102-43 102-95 0-80 68-144 151-144s152 64 152 144c0 212-182 384-406 384z m439-102c-48 69-110 122-184 160-155 80-352 79-506-1-74-37-136-91-184-160-8-11-6-27 6-35 4-2 9-4 14-4 8 0 15 3 19 10 44 62 100 111 167 146 140 72 321 72 462 0 66-34 122-82 166-144 8-11 23-14 35-6 11 8 13 23 5 34z" horiz-adv-x="1000" />

<glyph glyph-name="flight" unicode="&#xe817;" d="M965 154v98l-392 245v269c0 41-32 74-73 74s-73-33-73-74v-269l-392-245v-98l392 123v-270l-98-73v-74l171 49 171-49v74l-98 73v270l392-123z" horiz-adv-x="1000" />

<glyph glyph-name="flight_land" unicode="&#xe818;" d="M993-39v-104h-986v104h986z m-613 297l225-60 276-74c41-11 84 14 95 55 11 42-13 84-55 96l-275 73-143 469-101 26v-430l-257 69-49 121-75 20v-268l83-23 276-74z" horiz-adv-x="1000" />

<glyph glyph-name="flight_takeoff" unicode="&#xe819;" d="M41 25h920v-97h-920v97z m948 453c-10 39-50 62-89 52l-257-69-335 311-93-24 200-348-241-64-95 74-70-19 88-153 37-64 78 21 257 69 211 56 257 69c39 11 62 50 52 89z" horiz-adv-x="1000" />

<glyph glyph-name="glob_map" unicode="&#xe81a;" d="M905 636c-8 11-15 21-24 31-95 114-233 179-383 179-1 0-1 0-1 0-146-1-284-66-378-179-8-10-16-20-24-31-60-84-91-183-91-286 0-103 31-202 91-286 8-11 16-21 24-31 94-113 232-178 380-179h1c147 0 286 65 381 179 9 10 16 20 24 31 60 84 91 183 91 286 0 103-31 202-91 286z m-599 93c-24-34-45-75-62-120-21 8-40 18-58 28 34 38 75 69 120 92z m-162-146c24-15 51-29 80-40-14-56-22-114-23-174h-127c4 77 28 150 70 214z m0-465c-36 55-59 117-67 181h125c3-48 10-96 22-141-29-12-56-26-80-40z m42-55c18 10 37 20 58 29 17-46 38-87 62-121-45 23-85 54-120 92z m279-134c-63 18-119 85-155 185 49 13 101 21 155 23v-208z m0 278c-61-2-120-11-175-27-9 38-15 78-18 119h193v-92z m0 162h-194c1 52 7 103 19 151 55-15 114-25 175-27v-124z m0 194c-55 2-107 10-155 24 36 99 92 166 155 184v-208z m391 20c42-64 66-138 70-214h-129c-1 60-9 117-23 173 30 12 58 25 82 41z m-42 54c-18-11-38-20-60-29-17 47-39 88-64 123 47-23 89-55 124-94z m-279 134c62-19 118-86 153-185-48-13-100-21-153-23v208z m0-278c60 2 118 11 173 27 11-48 18-99 19-151h-192v124z m191-194c-3-41-9-80-18-118-55 15-113 24-173 26v92h191z m-191-369v207c54-2 105-10 153-23-35-98-91-166-153-184z m155 39c26 35 47 77 64 123 22-8 42-18 60-29-35-39-77-71-124-94z m166 148c-24 16-52 30-82 42 12 45 19 92 22 140h127c-8-64-31-127-67-182z" horiz-adv-x="1000" />

<glyph glyph-name="google_plus" unicode="&#xe81b;" d="M976 693v-67h-130v-133h-64v133h-130v67h130v133h64v-133h130z m-409 79h-74c52-31 80-94 80-163 0-64-35-115-83-154-48-39-56-55-56-87 0-27 56-69 82-89 91-70 109-113 109-201 0-109-114-217-300-217-163 0-301 68-301 177 0 111 114 226 277 226 18 0 35 0 51 0-22 23-40 42-40 76 0 20 6 39 15 56-9-1-18-1-27-1-134 0-212 96-212 218 0 118 119 226 261 226h281l-63-67z m-155-554c-23 7-47 12-74 12-112 1-208-73-208-160 0-88 82-161 194-161 159 0 214 69 214 157 0 10-1 21-4 31-12 50-61 77-122 121z m48 386c-13 102-78 186-153 189-76 2-127-76-114-178 13-103 85-174 161-176 76-3 119 63 106 165z" horiz-adv-x="1000" />

<glyph glyph-name="google_plus_new" unicode="&#xe81c;" d="M993 396v-89h-90v-90h-89v90h-90v89h90v89h89v-89h90z m-663-5v-99h180v-10c-5-30-25-60-45-80-70-79-204-79-279 0-80 80-75 214 0 288 65 65 164 75 234 30l30-20 80 80-50 35-45 24c-115 45-244 25-334-64-125-119-125-328-5-447 120-120 329-120 449-5 44 44 69 109 74 174v69l-5 25h-284z" horiz-adv-x="1000" />

<glyph glyph-name="half_star" unicode="&#xe81d;" d="M993 462l-354 30-139 327-139-327-354-30 269-234-81-347 305 184 305-184-80 347 268 234z m-493-304v458l84-199 217-19-164-142 49-211-186 113z" horiz-adv-x="1000" />

<glyph glyph-name="linkedin" unicode="&#xe81e;" d="M995 240v-376h-212v351c0 88-31 148-108 148-58 0-93-40-109-80-5-14-7-33-7-53v-366h-212c0 0 3 594 0 656h212v-93c0-1-1-1-1-2h1v2c29 45 79 108 192 108 139 0 244-93 244-295z m-870 596c-72 0-120-49-120-113 0-63 46-114 117-114h2c74 0 120 51 120 114-1 64-46 113-119 113z m-107-972h212v656h-212v-656z" horiz-adv-x="1000" />

<glyph glyph-name="local_activity" unicode="&#xe81f;" d="M990 448v196c0 54-44 98-98 98h-784c-53 0-97-44-97-98v-196c54 0 97-44 97-98 0-54-43-98-98-98v-196c0-54 45-98 98-98h784c54 0 98 44 98 98v196c-54 0-98 44-98 98 0 54 44 98 98 98z m-315-333l-175 113-175-113 53 202-161 131 207 13 76 193 75-194 208-12-161-132 53-201z" horiz-adv-x="1000" />

<glyph glyph-name="local_hotel" unicode="&#xe820;" d="M140 463c0 74 60 135 135 135 75 0 135-61 135-135 0-75-60-135-135-135-75 0-135 60-135 135z m675 135h-360v-316h-360v406h-90v-676h90v135h810v-135h91v406c0 99-81 180-181 180z" horiz-adv-x="1000" />

<glyph glyph-name="location_map" unicode="&#xe821;" d="M968 749l-306 93c-1 0-1 0-1 0-2 0-3 0-5 0-1 0-2 0-4 0-2 0-2 0-4 0-2 0-3 0-4 0-1 0-2 0-2 0l-295-91-295 90c-11 4-23 1-31-5-9-6-14-17-14-28v-824c0-15 10-29 24-33l306-92c3-1 7-2 10-2 4 0 7 1 10 2l296 89 296-89c3-1 6-2 10-2 7 0 14 3 20 7 9 7 15 17 15 28v824c0 15-11 28-26 33z m-656-811l-236 71v753l236-72v-752z m306 72l-236-72v751l236 73v-752z m306-72l-236 71v753l236-72v-752z" horiz-adv-x="1000" />

<glyph glyph-name="markunread" unicode="&#xe822;" d="M895 745h-789c-55 0-99-45-99-99l0-592c0-54 44-99 98-99h790c54 0 98 45 98 99v592c0 54-44 99-98 99z m0-198l-395-246-394 246v99l394-247 395 247v-99z" horiz-adv-x="1000" />

<glyph glyph-name="menu" unicode="&#xe823;" d="M10 405h980v-109h-980v109z m0-382h980v109h-980v-109z m0 654v-109h980v109h-980z" horiz-adv-x="1000" />

<glyph glyph-name="more_horiz" unicode="&#xe824;" d="M253 350c0-68-55-123-123-123-68 0-123 55-123 123 0 68 55 123 123 123 68 0 123-55 123-123z m617 123c-68 0-123-55-123-123 0-68 55-123 123-123 68 0 123 55 123 123 0 68-55 123-123 123z m-370 0c-68 0-123-55-123-123 0-68 55-123 123-123 68 0 123 55 123 123 0 68-55 123-123 123z" horiz-adv-x="1000" />

<glyph glyph-name="navigate_after" unicode="&#xe825;" d="M572 350l-378 379 117 116 495-495-495-495-116 116 377 379z" horiz-adv-x="1000" />

<glyph glyph-name="navigate_before" unicode="&#xe826;" d="M428 350l378-379-117-116-495 495 495 495 117-116-378-379z" horiz-adv-x="1000" />

<glyph glyph-name="people_outline_black" unicode="&#xe827;" d="M703 350c87 0 158 71 158 158 0 87-71 158-158 158s-158-71-158-158c0-87 71-158 158-158z m23 226c49 0 90-41 90-91 0-49-41-90-90-90s-91 41-91 90c0 50 41 91 91 91z m-429-226c87 0 158 71 158 158 0 87-71 158-158 158-87 0-158-71-158-158 0-87 71-158 158-158z m23 226c49 0 90-41 90-91 0-49-41-90-90-90-50 0-90 41-90 90 0 50 40 91 90 91z m383-271c-54 0-138-15-203-45-64 30-149 45-203 45-98 0-293-49-293-147v-124h992v124c0 98-195 147-293 147z m-158-225h-451v56c0 24 116 79 226 79 110 0 225-55 225-79v-56z m361 0h-337v56c0 21-9 39-24 55 40 13 88 24 136 24 110 0 225-55 225-79v-56z" horiz-adv-x="1000" />

<glyph glyph-name="person_pin_circle" unicode="&#xe828;" d="M500 843c-190 0-345-155-345-345 0-259 345-641 345-641s345 382 345 641c0 190-155 345-345 345z m0-99c54 0 99-44 99-98 0-55-45-99-99-99-54 0-99 44-99 99 0 54 45 98 99 98z m0-493c-82 0-155 42-197 106 1 66 131 102 197 102 66 0 196-36 197-102-42-64-115-106-197-106z" horiz-adv-x="1000" />

<glyph glyph-name="pintrest" unicode="&#xe829;" d="M872 519c0-223-120-389-298-389-59 0-115 33-135 71 0 0-32-131-38-156-24-89-95-179-100-186-4-5-12-4-13 3-2 12-20 124 1 216 11 46 71 309 71 309s-17 36-17 90c0 84 47 147 106 147 50 0 75-39 75-85 0-52-32-130-49-202-14-60 29-109 87-109 105 0 175 138 175 302 0 124-81 217-230 217-167 0-271-128-271-272 0-49 14-84 36-111 10-12 12-17 8-32-3-10-9-35-11-45-4-14-15-20-28-14-77 32-113 119-113 217 0 161 132 354 395 354 210 0 349-157 349-325z" horiz-adv-x="1000" />

<glyph glyph-name="place" unicode="&#xe82a;" d="M500 847c-192 0-348-156-348-348 0-261 348-646 348-646s348 385 348 646c0 192-156 348-348 348z m0-472c-68 0-124 55-124 124 0 69 56 124 124 124s124-55 124-124c0-69-55-124-124-124z" horiz-adv-x="1000" />

<glyph glyph-name="search" unicode="&#xe82b;" d="M958-52l-233 242c60 71 93 161 93 254 0 218-177 396-395 396-218 0-396-178-396-396 0-218 178-395 396-395 82 0 160 25 226 71l235-244c10-10 23-16 37-16 14 0 26 5 36 15 21 19 21 52 1 73z m-535 204c-161 0-293 131-293 292s132 293 293 293 292-132 292-293-131-292-292-292z" horiz-adv-x="1000" />

<glyph glyph-name="setting" unicode="&#xe82c;" d="M940 453l-69 12c-7 23-16 45-28 66l41 57c17 24 15 57-7 78l-61 61c-11 12-26 18-42 18-13 0-25-4-35-11l-57-41c-22 12-45 21-69 29l-12 67c-5 30-30 51-60 51h-86c-30 0-55-21-60-51l-12-69c-23-7-45-17-66-28l-56 40c-11 8-23 12-36 12-16 0-31-7-42-18l-62-61c-21-21-23-54-6-78l41-58c-11-21-21-44-27-67l-68-11c-30-5-51-30-51-60v-86c0-30 21-55 51-60l69-12c7-23 17-45 28-66l-40-56c-17-25-15-58 6-78l61-61c12-12 27-18 43-18 13 0 25 4 35 11l58 41c20-11 42-20 64-27l12-68c5-30 30-51 60-51h86c30 0 55 21 60 51l12 68c23 7 45 17 66 28l57-41c10-7 23-11 35-11 16 0 32 6 43 18l61 61c21 21 24 54 7 78l-41 57c11 21 21 44 28 67l68 11c30 5 51 30 51 60v86c0 30-21 55-50 60z m-5-146h0c0-3-2-5-4-5l-86-15c-11-2-20-9-22-20-8-30-20-59-36-86-6-9-5-21 1-30l51-71c1-2 1-5-1-7l-61-61c-1-2-3-2-4-2-1 0-2 1-3 1l-71 51c-9 6-21 7-30 1-27-16-56-28-86-35-10-3-18-12-20-23l-15-86c0-2-2-4-5-4h-86c-3 0-5 2-5 4l-15 86c-2 11-10 20-20 23-29 7-57 19-84 34-4 2-9 4-14 4-5 0-11-2-16-6l-71-51c-1 0-3-1-4-1 0 0-2 1-3 2l-61 61c-2 2-2 5-1 7l50 71c7 9 7 21 2 30-16 27-29 55-36 86-3 10-12 18-23 20l-86 15c-3 0-5 2-5 5v86c0 3 2 5 5 5l85 15c11 2 20 10 23 20 7 30 19 59 35 86 5 10 4 21-2 30l-51 72c-1 2-1 5 1 7l61 61c1 1 3 1 4 1 1 0 2 0 3-1l70-50c9-6 21-7 31-1 26 16 55 28 85 36 11 3 19 11 20 22l15 86c1 3 3 5 6 5h86c2 0 5-2 5-5l14-85c2-11 10-20 21-22 31-8 60-20 88-36 9-6 21-5 30 1l70 51c1 0 2 1 3 1 1 0 3 0 4-2l61-61c2-2 2-5 1-7l-51-71c-6-9-6-21-1-30 16-27 28-56 36-86 2-10 11-18 22-20l86-15c3 0 4-2 4-5v-86z m-435 255c-117 0-211-95-211-212 0-117 94-211 211-211 117 0 212 94 212 211 0 117-95 212-212 212z m0-368c-86 0-156 70-156 156 0 86 70 156 156 156s156-70 156-156c0-86-70-156-156-156z" horiz-adv-x="1000" />

<glyph glyph-name="sms" unicode="&#xe82d;" d="M894 842h-788c-54 0-98-44-98-98l0-886 197 197h689c54 0 98 44 98 98v591c0 54-44 98-98 98z m-542-443h-98v99h98v-99z m197 0h-98v99h98v-99z m197 0h-98v99h98v-99z" horiz-adv-x="1000" />

<glyph glyph-name="sort" unicode="&#xe82e;" d="M986 221c10-10 10-27 0-36l-197-198c-10-10-26-10-36 0-5 5-8 12-8 18s3 14 8 19l153 153h-874c-14 0-26 12-26 26 0 14 12 26 26 26v-1h874l-153 154c-10 10-10 26 0 36 10 10 26 10 36 0l197-197z m-775 61c10-10 26-10 36 0 10 10 10 26 0 36l-153 154h874c14 0 26 11 26 26 0 14-12 25-26 25h-874l153 154c10 10 10 26 0 36-10 10-26 10-36 0l-197-197c-5-5-7-12-7-19s2-13 7-18l197-197z" horiz-adv-x="1000" />

<glyph glyph-name="star" unicode="&#xe82f;" d="M724 228l81-346-305 184-305-184 81 346-269 233 355 31 138 326 139-326 354-31-269-233z" horiz-adv-x="1000" />

<glyph glyph-name="star_border" unicode="&#xe830;" d="M996 462l-357 31-139 328-139-329-357-30 271-234-81-349 306 185 306-185-80 349 270 234z m-496-305l-186-113 49 212-164 143 217 19 84 200 85-201 217-18-165-143 50-212-187 113z" horiz-adv-x="1000" />

<glyph glyph-name="star_half" unicode="&#xe831;" d="M997 462l-357 31-140 329-140-329-357-31 272-235-82-349 307 186 307-186-81 349 271 235 0 0z m-497-306v462l85-200 217-19-164-143 49-213-187 113 0 0z" horiz-adv-x="1000" />

<glyph glyph-name="twitter" unicode="&#xe832;" d="M894 558c0-9 0-18 0-27 0-276-204-595-578-595-114 0-221 35-311 94 16-2 32-3 48-3 96 0 183 34 253 90-89 1-164 62-190 145 12-3 25-4 38-4 19 0 37 3 54 7-93 20-163 104-163 205v3c27-16 58-25 92-26-55 37-91 101-91 174 0 38 10 74 28 105 100-127 250-210 419-219-4 16-6 32-6 48 0 115 91 209 204 209 58 0 111-26 148-66 46 9 90 27 129 50-15-48-47-89-89-115 41 5 80 16 116 33-27-42-61-79-101-108z" horiz-adv-x="1000" />

<glyph glyph-name="up_down" unicode="&#xe833;" d="M325 516l-78 77 253 253 253-253-78-78-175 175-175-174z m350-331l-175-175-175 175-78-78 253-253 253 253-78 78z" horiz-adv-x="1000" />

<glyph glyph-name="with-flight" unicode="&#xe834;" d="M500 845c-273 0-495-222-495-495 0-273 222-495 495-495 273 0 495 222 495 495 0 273-222 495-495 495z m0-943c-247 0-448 201-448 448 0 247 201 448 448 448 247 0 448-201 448-448 0-247-201-448-448-448z m45 533l238-141v-57l-238 71v-156l59-42v-43l-104 29-104-29v43l59 42v156l-238-71v57l238 141v155c0 24 20 43 45 43s45-19 45-43v-155z" horiz-adv-x="1000" />

<glyph glyph-name="without-flight" unicode="&#xe835;" d="M500 842c-151 0-286-68-376-175l-25 20-30-36 27-22c-55-79-88-175-88-279 0-271 221-492 492-492 271 0 492 221 492 492 0 271-221 492-492 492z m0-937c-245 0-445 200-445 445 0 93 29 179 77 250l221-180-134-79v-57l221 66 16-13v-137l-59-42v-42l103 28 104-28v42l-60 42v65l276-224c-81-84-195-136-320-136z m44 420v30l237-71v57l-237 140v155c0 23-19 42-44 42s-44-19-44-42v-155l-60-35-235 191c81 97 203 158 339 158 245 0 445-200 445-445 0-103-36-198-95-273l-306 248z" horiz-adv-x="1000" />

<glyph glyph-name="you_tube" unicode="&#xe836;" d="M811 373h-622c-99 0-179-82-179-184v-148c0-102 80-184 179-184h622c99 0 180 82 180 184v148c0 102-81 184-180 184z m-491-115h-58v-296h-56v296h-58v50h172v-50z m163-296h-50v28c-9-10-18-18-28-23-10-6-20-8-29-8-11 0-20 3-26 11-6 8-9 19-9 34v214h50v-196c0-6 1-10 3-13 2-3 6-4 10-4 4 0 9 2 14 5 6 4 11 8 15 14v194h50v-256z m180 53c0-18-4-32-12-41-7-10-19-15-33-15-10 0-19 2-26 6-8 3-15 9-21 17v-20h-51v346h51v-111c6 8 13 14 21 18 7 4 15 6 23 6 16 0 27-6 36-16 8-11 12-27 12-48v-142z m172 69h-95v-48c0-13 2-23 5-28 3-5 9-8 17-8 8 0 14 2 17 7 3 4 5 14 5 29v12h51v-14c0-26-6-46-18-59-13-13-31-20-56-20-22 0-40 7-53 21-12 14-19 34-19 58v115c0 22 7 40 21 54 14 14 32 21 55 21 22 0 40-6 52-19 12-13 18-32 18-56v-65z m-56 88c3-4 5-12 5-23v-25h-44v25c0 11 2 19 5 23 4 5 10 7 17 7 8 0 14-2 17-7z m-172 2c3-5 5-11 5-20v-132c0-8-1-14-4-17-3-4-8-6-14-6-4 0-8 1-12 3-3 2-7 5-11 9v159c3 4 6 6 10 8s7 2 10 2c7 0 12-2 16-6z m-337 439l-75 230h64l41-152h4l38 152h64l-73-223v-158h-63v151z m222-158c25 0 45 7 59 21 15 13 22 32 22 56v145c0 22-7 39-22 53-15 14-34 20-57 20-25 0-46-6-60-19-15-13-23-30-23-52v-146c0-24 7-43 22-57 15-14 34-21 59-21z m-24 226c0 6 3 11 7 15 4 4 10 6 16 6 8 0 14-2 18-6 5-4 7-9 7-15v-153c0-8-2-14-7-18-4-4-10-6-18-6-7 0-13 2-17 6-4 4-6 10-6 18v153z m160-210c-6 8-10 21-10 37v235h56v-215c0-7 1-12 4-15 2-3 6-4 11-4 4 0 9 2 16 6 6 4 12 9 17 15v213h56v-281h-56v31c-10-11-21-20-32-26-11-6-22-9-33-9-13 0-22 4-29 13z" horiz-adv-x="1000" />
</font>
</defs>
</svg>
